<?xml version="1.0" encoding="UTF-8" standalone="no"?>
<!DOCTYPE svg PUBLIC "-//W3C//DTD SVG 1.1//EN"
 "http://www.w3.org/Graphics/SVG/1.1/DTD/svg11.dtd">
<!-- Generated by graphviz version 5.0.0 (20220707.1540)
 -->
<!-- Title: dependencies Pages: 1 -->
<svg width="1566pt" height="247pt"
 viewBox="0.00 0.00 1566.00 246.80" xmlns="http://www.w3.org/2000/svg" xmlns:xlink="http://www.w3.org/1999/xlink">
<g id="graph0" class="graph" transform="scale(1 1) rotate(0) translate(4 242.8)">
<title>dependencies</title>
<polygon fill="white" stroke="transparent" points="-4,4 -4,-242.8 1562,-242.8 1562,4 -4,4"/>
<text text-anchor="middle" x="779" y="-8.2" font-family="sans-serif" font-size="14.00">dependencies</text>
<g id="clust1" class="cluster">
<title>cluster_AppModule</title>
<polygon fill="none" stroke="black" stroke-dasharray="1,5" points="8,-32.8 8,-230.8 1550,-230.8 1550,-32.8 8,-32.8"/>
</g>
<g id="clust13" class="cluster">
<title>cluster_AppModule_imports</title>
<polygon fill="none" stroke="black" points="1398,-40.8 1398,-92.8 1542,-92.8 1542,-40.8 1398,-40.8"/>
</g>
<g id="clust15" class="cluster">
<title>cluster_AppModule_bootstrap</title>
<polygon fill="none" stroke="black" points="721,-170.8 721,-222.8 845,-222.8 845,-170.8 721,-170.8"/>
</g>
<g id="clust2" class="cluster">
<title>cluster_AppModule_declarations</title>
<polygon fill="none" stroke="black" points="16,-40.8 16,-92.8 1390,-92.8 1390,-40.8 16,-40.8"/>
</g>
<!-- AppComponent -->
<g id="node1" class="node">
<title>AppComponent</title>
<polygon fill="#ffffb3" stroke="black" points="1381.94,-84.8 1276.06,-84.8 1276.06,-48.8 1381.94,-48.8 1381.94,-84.8"/>
<text text-anchor="middle" x="1329" y="-62.6" font-family="Times,serif" font-size="14.00">AppComponent</text>
</g>
<!-- AppModule -->
<g id="node11" class="node">
<title>AppModule</title>
<polygon fill="#8dd3c7" stroke="black" points="824.66,-149.8 821.66,-153.8 800.66,-153.8 797.66,-149.8 741.34,-149.8 741.34,-113.8 824.66,-113.8 824.66,-149.8"/>
<text text-anchor="middle" x="783" y="-127.6" font-family="Times,serif" font-size="14.00">AppModule</text>
</g>
<!-- AppComponent&#45;&gt;AppModule -->
<g id="edge1" class="edge">
<title>AppComponent&#45;&gt;AppModule</title>
<path fill="none" stroke="black" d="M1329,-85.08C1329,-106.12 1329,-137.8 1329,-137.8 1329,-137.8 834.94,-137.8 834.94,-137.8"/>
<polygon fill="black" stroke="black" points="834.94,-134.3 824.94,-137.8 834.94,-141.3 834.94,-134.3"/>
</g>
<!-- DeletedComponent -->
<g id="node2" class="node">
<title>DeletedComponent</title>
<polygon fill="#ffffb3" stroke="black" points="1258.36,-84.8 1133.64,-84.8 1133.64,-48.8 1258.36,-48.8 1258.36,-84.8"/>
<text text-anchor="middle" x="1196" y="-62.6" font-family="Times,serif" font-size="14.00">DeletedComponent</text>
</g>
<!-- DeletedComponent&#45;&gt;AppModule -->
<g id="edge2" class="edge">
<title>DeletedComponent&#45;&gt;AppModule</title>
<path fill="none" stroke="black" d="M1196,-84.91C1196,-104.14 1196,-131.8 1196,-131.8 1196,-131.8 834.87,-131.8 834.87,-131.8"/>
<polygon fill="black" stroke="black" points="834.87,-128.3 824.87,-131.8 834.87,-135.3 834.87,-128.3"/>
</g>
<!-- DoneComponent -->
<g id="node3" class="node">
<title>DoneComponent</title>
<polygon fill="#ffffb3" stroke="black" points="1115.66,-84.8 1004.34,-84.8 1004.34,-48.8 1115.66,-48.8 1115.66,-84.8"/>
<text text-anchor="middle" x="1060" y="-62.6" font-family="Times,serif" font-size="14.00">DoneComponent</text>
</g>
<!-- DoneComponent&#45;&gt;AppModule -->
<g id="edge3" class="edge">
<title>DoneComponent&#45;&gt;AppModule</title>
<path fill="none" stroke="black" d="M1060,-84.82C1060,-102.17 1060,-125.8 1060,-125.8 1060,-125.8 834.77,-125.8 834.77,-125.8"/>
<polygon fill="black" stroke="black" points="834.77,-122.3 824.77,-125.8 834.77,-129.3 834.77,-122.3"/>
</g>
<!-- FavoriteComponent -->
<g id="node4" class="node">
<title>FavoriteComponent</title>
<polygon fill="#ffffb3" stroke="black" points="985.99,-84.8 858.01,-84.8 858.01,-48.8 985.99,-48.8 985.99,-84.8"/>
<text text-anchor="middle" x="922" y="-62.6" font-family="Times,serif" font-size="14.00">FavoriteComponent</text>
</g>
<!-- FavoriteComponent&#45;&gt;AppModule -->
<g id="edge4" class="edge">
<title>FavoriteComponent&#45;&gt;AppModule</title>
<path fill="none" stroke="black" d="M922,-85.04C922,-100.37 922,-119.8 922,-119.8 922,-119.8 834.7,-119.8 834.7,-119.8"/>
<polygon fill="black" stroke="black" points="834.7,-116.3 824.7,-119.8 834.7,-123.3 834.7,-116.3"/>
</g>
<!-- LoginComponent -->
<g id="node5" class="node">
<title>LoginComponent</title>
<polygon fill="#ffffb3" stroke="black" points="840.27,-84.8 725.73,-84.8 725.73,-48.8 840.27,-48.8 840.27,-84.8"/>
<text text-anchor="middle" x="783" y="-62.6" font-family="Times,serif" font-size="14.00">LoginComponent</text>
</g>
<!-- LoginComponent&#45;&gt;AppModule -->
<g id="edge5" class="edge">
<title>LoginComponent&#45;&gt;AppModule</title>
<path fill="none" stroke="black" d="M783,-84.91C783,-84.91 783,-103.79 783,-103.79"/>
<polygon fill="black" stroke="black" points="779.5,-103.79 783,-113.79 786.5,-103.79 779.5,-103.79"/>
</g>
<!-- NavBarComponent -->
<g id="node6" class="node">
<title>NavBarComponent</title>
<polygon fill="#ffffb3" stroke="black" points="707.37,-84.8 582.63,-84.8 582.63,-48.8 707.37,-48.8 707.37,-84.8"/>
<text text-anchor="middle" x="645" y="-62.6" font-family="Times,serif" font-size="14.00">NavBarComponent</text>
</g>
<!-- NavBarComponent&#45;&gt;AppModule -->
<g id="edge6" class="edge">
<title>NavBarComponent&#45;&gt;AppModule</title>
<path fill="none" stroke="black" d="M645,-85.04C645,-100.37 645,-119.8 645,-119.8 645,-119.8 731.22,-119.8 731.22,-119.8"/>
<polygon fill="black" stroke="black" points="731.22,-123.3 741.22,-119.8 731.22,-116.3 731.22,-123.3"/>
</g>
<!-- NotFoundComponent -->
<g id="node7" class="node">
<title>NotFoundComponent</title>
<polygon fill="#ffffb3" stroke="black" points="565.12,-84.8 426.88,-84.8 426.88,-48.8 565.12,-48.8 565.12,-84.8"/>
<text text-anchor="middle" x="496" y="-62.6" font-family="Times,serif" font-size="14.00">NotFoundComponent</text>
</g>
<!-- NotFoundComponent&#45;&gt;AppModule -->
<g id="edge7" class="edge">
<title>NotFoundComponent&#45;&gt;AppModule</title>
<path fill="none" stroke="black" d="M496,-84.82C496,-102.17 496,-125.8 496,-125.8 496,-125.8 731.27,-125.8 731.27,-125.8"/>
<polygon fill="black" stroke="black" points="731.27,-129.3 741.27,-125.8 731.27,-122.3 731.27,-129.3"/>
</g>
<!-- SignupComponent -->
<g id="node8" class="node">
<title>SignupComponent</title>
<polygon fill="#ffffb3" stroke="black" points="408.51,-84.8 287.49,-84.8 287.49,-48.8 408.51,-48.8 408.51,-84.8"/>
<text text-anchor="middle" x="348" y="-62.6" font-family="Times,serif" font-size="14.00">SignupComponent</text>
</g>
<!-- SignupComponent&#45;&gt;AppModule -->
<g id="edge8" class="edge">
<title>SignupComponent&#45;&gt;AppModule</title>
<path fill="none" stroke="black" d="M348,-84.91C348,-104.14 348,-131.8 348,-131.8 348,-131.8 731.29,-131.8 731.29,-131.8"/>
<polygon fill="black" stroke="black" points="731.29,-135.3 741.29,-131.8 731.29,-128.3 731.29,-135.3"/>
</g>
<!-- TodoComponent -->
<g id="node9" class="node">
<title>TodoComponent</title>
<polygon fill="#ffffb3" stroke="black" points="269.38,-84.8 158.62,-84.8 158.62,-48.8 269.38,-48.8 269.38,-84.8"/>
<text text-anchor="middle" x="214" y="-62.6" font-family="Times,serif" font-size="14.00">TodoComponent</text>
</g>
<!-- TodoComponent&#45;&gt;AppModule -->
<g id="edge9" class="edge">
<title>TodoComponent&#45;&gt;AppModule</title>
<path fill="none" stroke="black" d="M214,-85.08C214,-106.12 214,-137.8 214,-137.8 214,-137.8 731.16,-137.8 731.16,-137.8"/>
<polygon fill="black" stroke="black" points="731.16,-141.3 741.16,-137.8 731.16,-134.3 731.16,-141.3"/>
</g>
<!-- TodosComponent -->
<g id="node10" class="node">
<title>TodosComponent</title>
<polygon fill="#ffffb3" stroke="black" points="140.33,-84.8 23.67,-84.8 23.67,-48.8 140.33,-48.8 140.33,-84.8"/>
<text text-anchor="middle" x="82" y="-62.6" font-family="Times,serif" font-size="14.00">TodosComponent</text>
</g>
<!-- TodosComponent&#45;&gt;AppModule -->
<g id="edge10" class="edge">
<title>TodosComponent&#45;&gt;AppModule</title>
<path fill="none" stroke="black" d="M82,-85.05C82,-107.82 82,-143.8 82,-143.8 82,-143.8 731.25,-143.8 731.25,-143.8"/>
<polygon fill="black" stroke="black" points="731.25,-147.3 741.25,-143.8 731.25,-140.3 731.25,-147.3"/>
</g>
<!-- AppComponent  -->
<g id="node13" class="node">
<title>AppComponent </title>
<polygon fill="#80b1d3" stroke="black" points="837.44,-214.8 728.56,-214.8 728.56,-178.8 837.44,-178.8 837.44,-214.8"/>
<text text-anchor="middle" x="783" y="-192.6" font-family="Times,serif" font-size="14.00">AppComponent </text>
</g>
<!-- AppModule&#45;&gt;AppComponent  -->
<g id="edge12" class="edge">
<title>AppModule&#45;&gt;AppComponent </title>
<path fill="none" stroke="black" stroke-dasharray="1,5" d="M783,-149.91C783,-149.91 783,-168.79 783,-168.79"/>
<polygon fill="black" stroke="black" points="779.5,-168.79 783,-178.79 786.5,-168.79 779.5,-168.79"/>
</g>
<!-- AppRoutingModule -->
<g id="node12" class="node">
<title>AppRoutingModule</title>
<polygon fill="#8dd3c7" stroke="black" points="1534.28,-84.8 1531.28,-88.8 1510.28,-88.8 1507.28,-84.8 1405.72,-84.8 1405.72,-48.8 1534.28,-48.8 1534.28,-84.8"/>
<text text-anchor="middle" x="1470" y="-62.6" font-family="Times,serif" font-size="14.00">AppRoutingModule</text>
</g>
<!-- AppRoutingModule&#45;&gt;AppModule -->
<g id="edge11" class="edge">
<title>AppRoutingModule&#45;&gt;AppModule</title>
<path fill="none" stroke="black" d="M1470,-85.05C1470,-107.82 1470,-143.8 1470,-143.8 1470,-143.8 834.68,-143.8 834.68,-143.8"/>
<polygon fill="black" stroke="black" points="834.68,-140.3 824.68,-143.8 834.68,-147.3 834.68,-140.3"/>
</g>
</g>
</svg>
