<?xml version="1.0" encoding="UTF-8" standalone="no"?>
<!DOCTYPE svg PUBLIC "-//W3C//DTD SVG 1.1//EN"
 "http://www.w3.org/Graphics/SVG/1.1/DTD/svg11.dtd">
<!-- Generated by graphviz version 5.0.0 (20220707.1540)
 -->
<!-- Title: dependencies Pages: 1 -->
<svg width="1566pt" height="247pt"
 viewBox="0.00 0.00 1566.00 246.80" xmlns="http://www.w3.org/2000/svg" xmlns:xlink="http://www.w3.org/1999/xlink">
<g id="graph0" class="graph" transform="scale(1 1) rotate(0) translate(4 242.8)">
<title>dependencies</title>
<polygon fill="white" stroke="transparent" points="-4,4 -4,-242.8 1562,-242.8 1562,4 -4,4"/>
<text text-anchor="middle" x="779" y="-8.2" font-family="sans-serif" font-size="14.00">dependencies</text>
<g id="clust1" class="cluster">
<title>cluster_AppModule</title>
<polygon fill="none" stroke="black" stroke-dasharray="1,5" points="8,-32.8 8,-230.8 1550,-230.8 1550,-32.8 8,-32.8"/>
</g>
<g id="clust2" class="cluster">
<title>cluster_AppModule_declarations</title>
<polygon fill="none" stroke="black" points="168,-40.8 168,-92.8 1542,-92.8 1542,-40.8 168,-40.8"/>
</g>
<g id="clust13" class="cluster">
<title>cluster_AppModule_imports</title>
<polygon fill="none" stroke="black" points="16,-40.8 16,-92.8 160,-92.8 160,-40.8 16,-40.8"/>
</g>
<g id="clust15" class="cluster">
<title>cluster_AppModule_bootstrap</title>
<polygon fill="none" stroke="black" points="735,-170.8 735,-222.8 859,-222.8 859,-170.8 735,-170.8"/>
</g>
<!-- AppComponent -->
<g id="node1" class="node">
<title>AppComponent</title>
<polygon fill="#ffffb3" stroke="black" points="1533.94,-84.8 1428.06,-84.8 1428.06,-48.8 1533.94,-48.8 1533.94,-84.8"/>
<text text-anchor="middle" x="1481" y="-62.6" font-family="Times,serif" font-size="14.00">AppComponent</text>
</g>
<!-- AppModule -->
<g id="node11" class="node">
<title>AppModule</title>
<polygon fill="#8dd3c7" stroke="black" points="838.66,-149.8 835.66,-153.8 814.66,-153.8 811.66,-149.8 755.34,-149.8 755.34,-113.8 838.66,-113.8 838.66,-149.8"/>
<text text-anchor="middle" x="797" y="-127.6" font-family="Times,serif" font-size="14.00">AppModule</text>
</g>
<!-- AppComponent&#45;&gt;AppModule -->
<g id="edge1" class="edge">
<title>AppComponent&#45;&gt;AppModule</title>
<path fill="none" stroke="black" d="M1481,-85.05C1481,-107.82 1481,-143.8 1481,-143.8 1481,-143.8 848.76,-143.8 848.76,-143.8"/>
<polygon fill="black" stroke="black" points="848.76,-140.3 838.76,-143.8 848.76,-147.3 848.76,-140.3"/>
</g>
<!-- DeletedComponent -->
<g id="node2" class="node">
<title>DeletedComponent</title>
<polygon fill="#ffffb3" stroke="black" points="1410.36,-84.8 1285.64,-84.8 1285.64,-48.8 1410.36,-48.8 1410.36,-84.8"/>
<text text-anchor="middle" x="1348" y="-62.6" font-family="Times,serif" font-size="14.00">DeletedComponent</text>
</g>
<!-- DeletedComponent&#45;&gt;AppModule -->
<g id="edge2" class="edge">
<title>DeletedComponent&#45;&gt;AppModule</title>
<path fill="none" stroke="black" d="M1348,-85.08C1348,-106.12 1348,-137.8 1348,-137.8 1348,-137.8 848.87,-137.8 848.87,-137.8"/>
<polygon fill="black" stroke="black" points="848.87,-134.3 838.87,-137.8 848.87,-141.3 848.87,-134.3"/>
</g>
<!-- DoneComponent -->
<g id="node3" class="node">
<title>DoneComponent</title>
<polygon fill="#ffffb3" stroke="black" points="1267.66,-84.8 1156.34,-84.8 1156.34,-48.8 1267.66,-48.8 1267.66,-84.8"/>
<text text-anchor="middle" x="1212" y="-62.6" font-family="Times,serif" font-size="14.00">DoneComponent</text>
</g>
<!-- DoneComponent&#45;&gt;AppModule -->
<g id="edge3" class="edge">
<title>DoneComponent&#45;&gt;AppModule</title>
<path fill="none" stroke="black" d="M1212,-84.91C1212,-104.14 1212,-131.8 1212,-131.8 1212,-131.8 848.69,-131.8 848.69,-131.8"/>
<polygon fill="black" stroke="black" points="848.69,-128.3 838.69,-131.8 848.69,-135.3 848.69,-128.3"/>
</g>
<!-- FavoriteComponent -->
<g id="node4" class="node">
<title>FavoriteComponent</title>
<polygon fill="#ffffb3" stroke="black" points="1137.99,-84.8 1010.01,-84.8 1010.01,-48.8 1137.99,-48.8 1137.99,-84.8"/>
<text text-anchor="middle" x="1074" y="-62.6" font-family="Times,serif" font-size="14.00">FavoriteComponent</text>
</g>
<!-- FavoriteComponent&#45;&gt;AppModule -->
<g id="edge4" class="edge">
<title>FavoriteComponent&#45;&gt;AppModule</title>
<path fill="none" stroke="black" d="M1074,-84.82C1074,-102.17 1074,-125.8 1074,-125.8 1074,-125.8 848.77,-125.8 848.77,-125.8"/>
<polygon fill="black" stroke="black" points="848.77,-122.3 838.77,-125.8 848.77,-129.3 848.77,-122.3"/>
</g>
<!-- LoginComponent -->
<g id="node5" class="node">
<title>LoginComponent</title>
<polygon fill="#ffffb3" stroke="black" points="992.27,-84.8 877.73,-84.8 877.73,-48.8 992.27,-48.8 992.27,-84.8"/>
<text text-anchor="middle" x="935" y="-62.6" font-family="Times,serif" font-size="14.00">LoginComponent</text>
</g>
<!-- LoginComponent&#45;&gt;AppModule -->
<g id="edge5" class="edge">
<title>LoginComponent&#45;&gt;AppModule</title>
<path fill="none" stroke="black" d="M935,-85.04C935,-100.37 935,-119.8 935,-119.8 935,-119.8 848.78,-119.8 848.78,-119.8"/>
<polygon fill="black" stroke="black" points="848.78,-116.3 838.78,-119.8 848.78,-123.3 848.78,-116.3"/>
</g>
<!-- NavBarComponent -->
<g id="node6" class="node">
<title>NavBarComponent</title>
<polygon fill="#ffffb3" stroke="black" points="859.37,-84.8 734.63,-84.8 734.63,-48.8 859.37,-48.8 859.37,-84.8"/>
<text text-anchor="middle" x="797" y="-62.6" font-family="Times,serif" font-size="14.00">NavBarComponent</text>
</g>
<!-- NavBarComponent&#45;&gt;AppModule -->
<g id="edge6" class="edge">
<title>NavBarComponent&#45;&gt;AppModule</title>
<path fill="none" stroke="black" d="M797,-84.91C797,-84.91 797,-103.79 797,-103.79"/>
<polygon fill="black" stroke="black" points="793.5,-103.79 797,-113.79 800.5,-103.79 793.5,-103.79"/>
</g>
<!-- NotFoundComponent -->
<g id="node7" class="node">
<title>NotFoundComponent</title>
<polygon fill="#ffffb3" stroke="black" points="717.12,-84.8 578.88,-84.8 578.88,-48.8 717.12,-48.8 717.12,-84.8"/>
<text text-anchor="middle" x="648" y="-62.6" font-family="Times,serif" font-size="14.00">NotFoundComponent</text>
</g>
<!-- NotFoundComponent&#45;&gt;AppModule -->
<g id="edge7" class="edge">
<title>NotFoundComponent&#45;&gt;AppModule</title>
<path fill="none" stroke="black" d="M648,-85.04C648,-100.37 648,-119.8 648,-119.8 648,-119.8 745.1,-119.8 745.1,-119.8"/>
<polygon fill="black" stroke="black" points="745.1,-123.3 755.1,-119.8 745.1,-116.3 745.1,-123.3"/>
</g>
<!-- SignupComponent -->
<g id="node8" class="node">
<title>SignupComponent</title>
<polygon fill="#ffffb3" stroke="black" points="560.51,-84.8 439.49,-84.8 439.49,-48.8 560.51,-48.8 560.51,-84.8"/>
<text text-anchor="middle" x="500" y="-62.6" font-family="Times,serif" font-size="14.00">SignupComponent</text>
</g>
<!-- SignupComponent&#45;&gt;AppModule -->
<g id="edge8" class="edge">
<title>SignupComponent&#45;&gt;AppModule</title>
<path fill="none" stroke="black" d="M500,-84.82C500,-102.17 500,-125.8 500,-125.8 500,-125.8 745.08,-125.8 745.08,-125.8"/>
<polygon fill="black" stroke="black" points="745.08,-129.3 755.08,-125.8 745.08,-122.3 745.08,-129.3"/>
</g>
<!-- TodoComponent -->
<g id="node9" class="node">
<title>TodoComponent</title>
<polygon fill="#ffffb3" stroke="black" points="421.38,-84.8 310.62,-84.8 310.62,-48.8 421.38,-48.8 421.38,-84.8"/>
<text text-anchor="middle" x="366" y="-62.6" font-family="Times,serif" font-size="14.00">TodoComponent</text>
</g>
<!-- TodoComponent&#45;&gt;AppModule -->
<g id="edge9" class="edge">
<title>TodoComponent&#45;&gt;AppModule</title>
<path fill="none" stroke="black" d="M366,-84.91C366,-104.14 366,-131.8 366,-131.8 366,-131.8 745.28,-131.8 745.28,-131.8"/>
<polygon fill="black" stroke="black" points="745.28,-135.3 755.28,-131.8 745.28,-128.3 745.28,-135.3"/>
</g>
<!-- TodosComponent -->
<g id="node10" class="node">
<title>TodosComponent</title>
<polygon fill="#ffffb3" stroke="black" points="292.33,-84.8 175.67,-84.8 175.67,-48.8 292.33,-48.8 292.33,-84.8"/>
<text text-anchor="middle" x="234" y="-62.6" font-family="Times,serif" font-size="14.00">TodosComponent</text>
</g>
<!-- TodosComponent&#45;&gt;AppModule -->
<g id="edge10" class="edge">
<title>TodosComponent&#45;&gt;AppModule</title>
<path fill="none" stroke="black" d="M234,-85.08C234,-106.12 234,-137.8 234,-137.8 234,-137.8 745.14,-137.8 745.14,-137.8"/>
<polygon fill="black" stroke="black" points="745.14,-141.3 755.14,-137.8 745.14,-134.3 745.14,-141.3"/>
</g>
<!-- AppComponent  -->
<g id="node13" class="node">
<title>AppComponent </title>
<polygon fill="#80b1d3" stroke="black" points="851.44,-214.8 742.56,-214.8 742.56,-178.8 851.44,-178.8 851.44,-214.8"/>
<text text-anchor="middle" x="797" y="-192.6" font-family="Times,serif" font-size="14.00">AppComponent </text>
</g>
<!-- AppModule&#45;&gt;AppComponent  -->
<g id="edge12" class="edge">
<title>AppModule&#45;&gt;AppComponent </title>
<path fill="none" stroke="black" stroke-dasharray="1,5" d="M797,-149.91C797,-149.91 797,-168.79 797,-168.79"/>
<polygon fill="black" stroke="black" points="793.5,-168.79 797,-178.79 800.5,-168.79 793.5,-168.79"/>
</g>
<!-- AppRoutingModule -->
<g id="node12" class="node">
<title>AppRoutingModule</title>
<polygon fill="#8dd3c7" stroke="black" points="152.28,-84.8 149.28,-88.8 128.28,-88.8 125.28,-84.8 23.72,-84.8 23.72,-48.8 152.28,-48.8 152.28,-84.8"/>
<text text-anchor="middle" x="88" y="-62.6" font-family="Times,serif" font-size="14.00">AppRoutingModule</text>
</g>
<!-- AppRoutingModule&#45;&gt;AppModule -->
<g id="edge11" class="edge">
<title>AppRoutingModule&#45;&gt;AppModule</title>
<path fill="none" stroke="black" d="M88,-85.05C88,-107.82 88,-143.8 88,-143.8 88,-143.8 745.3,-143.8 745.3,-143.8"/>
<polygon fill="black" stroke="black" points="745.3,-147.3 755.3,-143.8 745.3,-140.3 745.3,-147.3"/>
</g>
</g>
</svg>
